<svg width="140" height="140" viewBox="0 0 140 140" fill="none" xmlns="http://www.w3.org/2000/svg">
<path d="M70 0C31.3984 0 0 31.3984 0 70C0 108.602 31.3984 140 70 140C108.602 140 140 108.602 140 70C140 31.3984 108.602 0 70 0ZM70 139.318C31.7962 139.318 0.696164 108.218 0.696164 70C0.696164 31.782 31.7962 0.696164 70 0.696164C108.204 0.696164 139.304 31.782 139.304 70C139.304 108.218 108.218 139.304 70 139.304V139.318Z" fill="#130C30"/>
<path d="M95.1898 105.476C95.4029 105.291 95.6018 105.092 95.8007 104.908C96.0564 104.68 96.3122 104.453 96.5395 104.226C96.6105 104.169 96.6815 104.098 96.7526 104.027C97.4914 103.331 98.1875 102.606 98.8269 101.881C102.777 97.534 105.519 92.7887 107.408 88.2992C110.378 82.4457 112.026 75.8961 112.026 69.1049C112.026 61.3477 109.923 53.7467 105.945 47.1687C105.888 47.0692 105.831 46.984 105.774 46.8987C105.419 46.3304 105.092 45.8047 104.737 45.2933C104.581 45.0375 104.396 44.796 104.24 44.5687C104.027 44.2561 103.799 43.9578 103.572 43.6594V40.1786C103.572 37.2093 101.157 34.794 98.2018 34.794H94.6215C94.3515 34.5951 94.0674 34.3962 93.7832 34.1973C93.5133 34.0126 93.2149 33.8137 92.945 33.629C86.0118 29.0258 77.9562 26.6105 69.5738 26.5963C62.6263 26.5963 55.7357 28.3012 49.655 31.5263C49.4276 31.6542 49.1861 31.782 48.9588 31.9099C48.0069 32.4498 47.055 33.0181 46.1315 33.629C45.5632 34.0126 45.0091 34.3962 44.4692 34.794H40.8037C37.8344 34.794 35.4191 37.2093 35.4191 40.1786V43.7873C35.0071 44.3272 34.6235 44.8813 34.2541 45.4354C29.5515 52.4254 27.0652 60.5379 27.0652 69.0481C27.0652 69.2896 27.0652 69.5454 27.0794 69.7869C27.0794 69.7869 27.0794 69.9716 27.0794 70.3268C27.2072 74.8163 28.0455 79.1922 29.4946 83.2982C31.6684 90.274 35.7743 98.6848 43.56 105.448L43.1764 104.851C48.7173 109.781 56.7871 114.242 67.2296 118.064C67.9399 118.334 68.7213 118.476 69.517 118.476C70.1137 118.476 70.7246 118.405 71.236 118.248C71.435 118.206 71.6197 118.135 71.8043 118.078C71.847 118.078 71.9322 118.035 71.9322 118.035L72.0175 118.007C81.9627 114.341 89.7341 110.108 95.2182 105.419L95.1898 105.476ZM70.8667 114.895L70.7956 114.924C70.7956 114.924 70.7246 114.938 70.6962 114.952C70.6109 114.981 70.5115 115.023 70.3836 115.052C69.7727 115.222 69.0339 115.194 68.423 114.967C49.3708 107.976 38.7579 99.1252 37.6923 89.3647V89.2369C37.6213 89.038 37.6071 88.8106 37.6071 88.5549V40.207C37.6071 38.4311 39.0562 36.9819 40.8321 36.9819H98.2302C100.006 36.9819 101.455 38.4311 101.455 40.207V88.5833C101.455 88.7822 101.427 89.0095 101.384 89.2369V89.3363C100.347 99.0826 89.8052 107.92 70.8667 114.91V114.895Z" fill="#130C30"/>
<path d="M62.5837 87.0489H58.3925V82.9714C58.3925 82.8151 58.2789 82.6872 58.1226 82.6588H53.5194C53.3631 82.6872 53.2494 82.8151 53.2494 82.9856V87.0631H49.0725C48.902 87.0631 48.7457 87.191 48.7457 87.3757V91.7658C48.7457 91.9363 48.8878 92.0783 49.0725 92.0783H53.2494V96.1559C53.2494 96.1559 53.2636 96.2837 53.3063 96.3406C53.3489 96.3974 53.4199 96.44 53.5052 96.4542L58.1084 96.4684C58.2647 96.4258 58.3783 96.298 58.3783 96.1417V92.0641H62.5553C62.74 92.0641 62.8821 91.9363 62.8821 91.7516V87.3615C62.8821 87.191 62.7542 87.0631 62.5695 87.0489H62.5837ZM62.257 91.4248H58.08C57.9095 91.4248 57.7674 91.5811 57.7674 91.7516V95.8291H53.903V91.7516C53.903 91.5811 53.7609 91.4248 53.5762 91.4248H49.3992V87.7735L49.4987 87.674H53.5762C53.7609 87.674 53.903 87.5178 53.903 87.3473V83.2697H57.7674V87.3473C57.7674 87.5178 57.9095 87.674 58.08 87.674H62.257V91.4248Z" fill="#130C30"/>
<path d="M91.1122 52.2833L90.7144 51.9139L88.4839 49.8255C88.3418 49.6834 88.1145 49.6834 87.9724 49.8255L84.7047 53.0363L84.4063 52.7522L84.0085 52.3828L81.2949 49.8255C81.2949 49.8255 81.2239 49.7686 81.1812 49.7544C81.0534 49.6976 80.8829 49.726 80.7834 49.8397L75.1857 55.3237C75.1857 55.3237 75.0863 55.48 75.0863 55.5795V66.5618C75.0863 66.7749 75.2425 66.9312 75.4557 66.9312H86.9068C87.1199 66.9312 87.2762 66.7749 87.2762 66.5618V64.1181H91.9363C92.1494 64.1181 92.3057 63.9476 92.3057 63.7345V53.5336C92.3057 53.4341 92.263 53.3347 92.1778 53.2637L91.1264 52.2833H91.1122ZM86.5232 66.2066H75.8108V55.7357L81.0392 50.6069L83.4828 52.8943L83.8807 53.2637L86.5232 55.7357V66.2066ZM91.5385 63.3793H87.3473V55.5937C87.3473 55.5084 87.3189 55.4232 87.262 55.3664C87.262 55.3664 87.262 55.3521 87.2336 55.3379L85.2872 53.5194L88.2423 50.6353L90.1888 52.4538L90.5866 52.8232L91.5385 53.7183V63.3935V63.3793Z" fill="#130C30"/>
<path d="M77.4021 63.1946C77.4731 63.2657 77.5726 63.3083 77.672 63.3083C77.7573 63.3083 77.8425 63.2799 77.9277 63.2088L84.5484 57.057C84.6905 56.915 84.7047 56.6876 84.5626 56.5314C84.4205 56.3751 84.179 56.3751 84.0369 56.5172L77.4163 62.669C77.26 62.811 77.26 63.0384 77.4021 63.1946Z" fill="#130C30"/>
<path d="M77.8993 59.2592C78.1977 59.4723 78.5529 59.6002 78.9365 59.6002C79.0501 59.6002 79.1638 59.6002 79.2917 59.5718C79.7463 59.4865 80.1157 59.2166 80.3714 58.833C80.613 58.4636 80.684 58.0373 80.5987 57.6111C80.5419 57.3554 80.414 57.1139 80.2578 56.9292C80.1441 56.7871 80.002 56.6592 79.8315 56.574C79.4764 56.3467 79.0359 56.2614 78.5955 56.3609C78.1409 56.4461 77.7573 56.7161 77.5015 57.0854C77.26 57.4548 77.1748 57.8953 77.2742 58.3073C77.3168 58.5204 77.4021 58.7051 77.5157 58.8756C77.6152 59.0319 77.743 59.1597 77.8993 59.2734V59.2592ZM78.1267 57.4691C78.2545 57.2559 78.4818 57.1139 78.7234 57.057C78.7944 57.057 78.8512 57.0428 78.9223 57.0428C79.0359 57.0428 79.1638 57.057 79.2632 57.0997C79.4479 57.1565 79.6042 57.2844 79.7037 57.4406C79.7747 57.5259 79.8173 57.6395 79.8457 57.7532C79.8884 57.9947 79.8457 58.2362 79.7179 58.4209C79.59 58.6341 79.3627 58.7761 79.107 58.833C78.8654 58.8756 78.6097 58.833 78.4108 58.7193C78.2545 58.6341 78.1124 58.492 78.0414 58.3073C78.013 58.2505 77.9988 58.1936 77.9846 58.1226C77.9277 57.8953 77.9704 57.6537 78.1124 57.4548L78.1267 57.4691Z" fill="#130C30"/>
<path d="M83.2982 60.1969C83.2982 60.1969 83.2271 60.1969 83.1987 60.1969C82.3321 60.2395 81.6359 60.9357 81.6075 61.7881V61.8449C81.6075 62.7542 82.3747 63.493 83.3124 63.493C84.2501 63.493 85.0173 62.7542 85.0173 61.8449C85.0173 60.9357 84.2501 60.1827 83.3124 60.1827L83.2982 60.1969ZM83.2982 62.7542C82.7583 62.7542 82.3463 62.3422 82.3463 61.8449C82.3463 61.3477 82.7725 60.9357 83.2982 60.9357C83.8238 60.9357 84.2501 61.3477 84.2501 61.8449C84.2501 62.3422 83.8096 62.7542 83.2982 62.7542Z" fill="#130C30"/>
<path d="M77.1321 96.3832H85.6992V91.1691C85.6992 91.1691 85.685 91.1122 85.685 91.0696C85.685 91.0412 85.685 91.0128 85.6992 90.9702V88.7254C85.6992 88.7254 85.685 88.6686 85.685 88.6259C85.685 88.5833 85.685 88.5549 85.6992 88.5265V86.2675C85.6992 86.2675 85.685 86.2107 85.685 86.1823C85.685 86.1396 85.685 86.1112 85.6992 86.0828V83.3124H77.1321V96.3832ZM78.3256 85.8839H84.1932C84.3495 85.8839 84.4632 86.0118 84.4632 86.1681C84.4632 86.3243 84.3495 86.4522 84.1932 86.4522H78.3256C78.1693 86.4522 78.0556 86.3243 78.0556 86.1681C78.0556 86.0118 78.1693 85.8839 78.3256 85.8839ZM78.3256 88.3276H84.1932C84.3495 88.3276 84.4632 88.4555 84.4632 88.6117C84.4632 88.768 84.3495 88.8959 84.1932 88.8959H78.3256C78.1693 88.8959 78.0556 88.768 78.0556 88.6117C78.0556 88.4555 78.1693 88.3276 78.3256 88.3276ZM78.3256 90.7713H84.1932C84.3495 90.7713 84.4632 90.8991 84.4632 91.0554C84.4632 91.2117 84.3495 91.3396 84.1932 91.3396H78.3256C78.1693 91.3396 78.0556 91.2117 78.0556 91.0554C78.0556 90.8991 78.1693 90.7713 78.3256 90.7713ZM78.3256 93.2149H81.3375C81.4938 93.2149 81.6217 93.3428 81.6217 93.4991C81.6217 93.6554 81.4938 93.7832 81.3375 93.7832H78.3256C78.1693 93.7832 78.0556 93.6554 78.0556 93.4991C78.0556 93.3428 78.1693 93.2149 78.3256 93.2149Z" fill="#130C30"/>
<path d="M97.0509 40.1076C96.8805 40.0365 96.71 39.9797 96.5253 39.9371C96.5111 39.9371 96.4969 39.9371 96.4684 39.9371C96.3122 39.9087 96.1559 39.8945 95.9996 39.8945H43.0201C42.8354 39.8945 42.6507 39.9087 42.4802 39.9513C41.9261 40.0649 41.4289 40.3775 41.0879 40.8037C40.7043 41.2442 40.477 41.8125 40.477 42.4376V88.5833L40.5054 88.9101H40.5338C40.548 89.1232 40.5764 89.3363 40.619 89.5352C40.6332 89.7625 40.6759 89.9756 40.7327 90.1888C40.9884 91.5385 41.4857 92.8598 42.2103 94.181C42.2813 94.3515 42.3808 94.522 42.4802 94.6783C43.1053 95.7439 43.8725 96.7952 44.796 97.8324C44.9097 97.9744 45.0376 98.1023 45.1654 98.2444C45.9894 99.1394 46.9271 100.02 47.9643 100.901C48.1063 101.029 48.2342 101.143 48.3905 101.256C49.3566 102.038 50.3937 102.819 51.5303 103.572C51.6866 103.672 51.8429 103.785 51.9992 103.885C53.0647 104.581 54.1871 105.277 55.3948 105.945C55.551 106.044 55.7215 106.144 55.892 106.229C57.0286 106.854 58.2362 107.479 59.4865 108.09C59.657 108.175 59.8417 108.261 60.0122 108.346C61.2056 108.928 62.4559 109.497 63.7629 110.051C63.9476 110.122 64.1323 110.207 64.317 110.278C65.9083 110.946 67.5705 111.599 69.3038 112.239V112.438H70.0142V112.125C87.8587 105.519 97.6903 97.4914 98.4859 88.9101H98.5427V42.4092C98.5427 42.2245 98.5285 42.054 98.4859 41.8835C98.3154 41.0879 97.7755 40.4343 97.0509 40.1076ZM41.1305 77.331L42.0114 76.4502H47.467L41.1305 82.7867V77.331ZM41.1589 88.5549L41.1305 88.3702V83.5681L48.2484 76.4502H53.7041L41.2015 88.9527C41.1873 88.8248 41.1731 88.6828 41.1589 88.5549ZM69.2896 111.514C67.741 110.932 66.2635 110.349 64.8285 109.752L69.2896 105.291V111.514ZM69.2896 104.51L64.2744 109.525C62.9673 108.971 61.7171 108.403 60.5094 107.834L69.2896 99.0542V104.51ZM69.2896 98.2728L59.998 107.564C58.7477 106.968 57.5401 106.343 56.4035 105.717L69.3038 92.8171V98.2728H69.2896ZM69.2896 79.5758L63.834 85.0315C64.0045 85.1167 64.1607 85.2162 64.3028 85.3298L69.2896 80.3572V85.8129L65.2121 89.8904V90.6576L69.2896 86.5801V92.0357L55.892 105.433C54.6986 104.751 53.562 104.069 52.4964 103.359L56.8865 98.969H56.1193L52.0276 103.061C50.9052 102.308 49.8539 101.54 48.8878 100.745L51.573 98.0597C51.4593 97.9176 51.3456 97.7613 51.2604 97.5908L48.4615 100.39C47.4244 99.523 46.4867 98.628 45.6627 97.7329L49.0298 94.3657H48.902C48.7031 94.3657 48.5042 94.3515 48.3195 94.2947L45.2933 97.3209C44.384 96.2837 43.6026 95.2324 42.9917 94.1668L46.4015 90.7571V89.9756L42.7217 93.6554C42.1534 92.604 41.7272 91.5243 41.4573 90.4445C41.4431 90.345 41.4147 90.2456 41.3862 90.1319C41.3578 89.9614 41.3294 89.791 41.301 89.6205L54.4997 76.4218H59.9553L56.2472 80.1299H57.0286L60.7368 76.4218H66.1924L60.5663 82.0479C60.6089 82.2326 60.6373 82.4315 60.6373 82.6304V82.7441L66.9738 76.4075H69.318V79.5332L69.2896 79.5758ZM70 40.548H77.1463L70 47.6943V40.548ZM70 48.4757L77.9277 40.548H83.3834L70 53.9314V48.4757ZM90.8423 95.4171C90.8423 95.7723 90.5582 96.0564 90.2172 96.0564H86.3101V96.3974C86.3101 96.7526 86.0402 97.0367 85.6992 97.0367H77.1321C77.0327 97.0367 76.9332 97.0083 76.848 96.9657C76.6491 96.8662 76.507 96.6531 76.507 96.3974V83.3266C76.507 82.9714 76.7912 82.7014 77.1321 82.7014H85.6992C86.0402 82.7014 86.3101 82.9856 86.3101 83.3266V83.6675H90.2172C90.4019 83.6675 90.5724 83.7528 90.686 83.8807C90.7713 83.9943 90.8423 84.1364 90.8423 84.3069V95.4171ZM97.875 75.7398H92.604L97.875 70.4688V75.7398ZM97.875 69.6874L91.8226 75.7398H86.367L97.875 64.2318V69.6874ZM97.875 44.7534L93.0018 49.6265L93.3996 49.9959L97.875 45.5206V50.9763L95.4171 53.4341V54.2013L97.875 51.7435V57.1991L95.4171 59.657V60.4242L97.875 57.9663V63.422L85.5856 75.7114H80.1299L86.3101 69.5312H85.5429L79.3627 75.7114H73.907L80.0873 69.5312H79.3201L73.1398 75.7114H70.0142V73.3672L74.2196 69.1618C74.0491 69.0907 73.8928 68.9771 73.7366 68.8634L70 72.6V67.1443L72.4579 64.6864V63.9192L70 66.3771V60.9215L72.4579 58.4636V57.6964L70 60.1543V54.6986L84.1648 40.5338H89.6205L83.0424 47.1118C83.1987 47.1971 83.3408 47.3107 83.4686 47.4244L90.3735 40.5338H95.8291L89.5778 46.7851C89.7625 46.8419 89.933 46.9271 90.1035 47.0266L96.5253 40.6048C97.2925 40.8321 97.8608 41.5567 97.8608 42.4092V44.7392L97.875 44.7534Z" fill="#130C30"/>
<path d="M86.3812 85.8555H88.8248C88.9953 85.8555 89.1374 85.9976 89.1374 86.1681C89.1374 86.3385 88.9953 86.4806 88.8248 86.4806H86.3812V88.285H88.8248C88.9953 88.285 89.1374 88.427 89.1374 88.5975C89.1374 88.768 88.9953 88.9243 88.8248 88.9243H86.3812V90.7286H88.8248C88.9953 90.7286 89.1374 90.8707 89.1374 91.0412C89.1374 91.2259 88.9953 91.368 88.8248 91.368H86.3812V95.3887H90.2314V84.2785H86.3812V85.8555Z" fill="#130C30"/>
<path d="M31.4837 109.625L33.8421 112.011L35.1634 110.704L31.1569 106.641L25.1756 112.565L26.8236 114.228L29.1679 111.912L30.9012 113.674L32.1656 112.423L30.4323 110.662L31.4837 109.625Z" fill="#130C30"/>
<path d="M37.4597 112.55L32.3582 119.237L34.222 120.659L39.3235 113.972L37.4597 112.55Z" fill="#130C30"/>
<path d="M44.5119 122.667L44.0004 117.012L41.9261 115.904L37.9765 123.335L40.0365 124.429L42.2529 120.28L42.7928 125.892L44.8529 127L48.8167 119.57L46.7424 118.476L44.5119 122.667Z" fill="#130C30"/>
<path d="M54.1019 121.431L48.8025 128.662L51.1609 129.344L51.9708 128.151L54.8407 128.989L54.8975 130.438L57.2701 131.12L56.6876 122.184L54.1019 121.431ZM53.0647 126.602L54.6844 124.244L54.7981 127.114L53.0647 126.602Z" fill="#130C30"/>
<path d="M67.2011 128.577L64.4449 123.605L62.1007 123.434L61.504 131.817L63.834 131.987L64.1749 127.299L66.9454 132.214L69.2754 132.385L69.8863 123.988L67.5421 123.818L67.2011 128.577Z" fill="#130C30"/>
<path d="M78.5102 127.043C78.1409 126.915 77.6862 126.787 77.1321 126.673C76.7627 126.588 76.4786 126.517 76.2939 126.46C76.1092 126.403 75.9387 126.318 75.7966 126.219C75.6546 126.119 75.5835 125.991 75.5551 125.835C75.5267 125.65 75.5551 125.494 75.6688 125.381C75.7682 125.267 75.8961 125.196 76.0808 125.167C76.3081 125.139 76.507 125.167 76.6633 125.281C76.8196 125.395 76.9332 125.565 76.9616 125.821L79.4906 125.508C79.3485 124.699 78.9649 124.102 78.3256 123.718C77.6862 123.335 76.8906 123.207 75.9103 123.335C75.3136 123.406 74.7879 123.576 74.3333 123.832C73.8786 124.088 73.5519 124.429 73.3245 124.841C73.0972 125.253 73.0262 125.736 73.0972 126.276C73.1683 126.801 73.3388 127.213 73.6371 127.512C73.9213 127.81 74.248 128.023 74.6032 128.151C74.9584 128.279 75.4272 128.393 75.9955 128.506C76.5354 128.606 76.919 128.705 77.1605 128.819C77.4021 128.918 77.5441 129.103 77.5726 129.344C77.601 129.529 77.5442 129.685 77.4163 129.813C77.2884 129.941 77.1179 130.012 76.9048 130.041C76.6633 130.069 76.4644 130.041 76.2939 129.913C76.1234 129.799 76.0097 129.6 75.9529 129.302L73.4808 129.614C73.6371 130.467 74.0491 131.092 74.7311 131.476C75.413 131.859 76.2371 131.987 77.2032 131.873C77.8425 131.788 78.3824 131.603 78.8228 131.319C79.2632 131.035 79.59 130.68 79.7889 130.254C79.9878 129.827 80.0589 129.359 79.9878 128.876C79.931 128.393 79.7463 127.995 79.4622 127.711C79.178 127.426 78.8512 127.213 78.4818 127.071L78.5102 127.043Z" fill="#130C30"/>
<path d="M90.1035 121.857C89.5352 121.36 88.8817 121.033 88.1429 120.891C87.4041 120.763 86.6511 120.806 85.8981 121.062C85.1451 121.317 84.52 121.715 84.0085 122.269C83.4971 122.837 83.1703 123.477 82.9998 124.216C82.8435 124.954 82.9003 125.722 83.1561 126.517C83.4118 127.313 83.838 127.952 84.4063 128.449C84.9746 128.947 85.6282 129.273 86.3812 129.415C87.1342 129.558 87.8729 129.501 88.6259 129.259C89.3647 129.018 90.0041 128.606 90.5013 128.052C91.0128 127.497 91.3396 126.844 91.4958 126.105C91.6521 125.366 91.5953 124.599 91.3396 123.804C91.0838 123.008 90.6718 122.383 90.0893 121.871L90.1035 121.857ZM89.0948 126.19C88.8959 126.673 88.5123 127 87.944 127.199C87.3615 127.384 86.85 127.355 86.4096 127.1C85.9549 126.844 85.6282 126.403 85.4293 125.778C85.2162 125.139 85.2162 124.585 85.4293 124.116C85.6282 123.633 86.026 123.306 86.5943 123.122C87.1626 122.937 87.674 122.965 88.1145 123.221C88.5691 123.477 88.8959 123.917 89.109 124.557C89.3221 125.167 89.3221 125.736 89.109 126.205L89.0948 126.19Z" fill="#130C30"/>
<path d="M100.418 113.801L102.663 119.144L98.5001 115.023L96.3406 116.401L98.3154 121.971L94.3942 117.638L92.263 119.001L98.5143 124.997L100.93 123.448L99.1536 118.476L102.904 122.198L105.334 120.649L102.549 112.438L100.418 113.801Z" fill="#130C30"/>
<path d="M104.908 109.568L108.9 117.581L110.591 115.805L109.909 114.526L111.955 112.367L113.262 112.977L114.967 111.187L106.755 107.621L104.908 109.582V109.568ZM110.264 111.557L109.028 112.864L107.664 110.349L110.264 111.557Z" fill="#130C30"/>
<path d="M36.2858 27.5908L35.8169 26.2269L38.2038 24.451L39.383 25.275L41.3578 23.7974L33.8705 18.8817L31.711 20.5013L34.2825 29.0684L36.2574 27.605L36.2858 27.5908ZM36.6836 23.357L35.2344 24.4368L34.3251 21.7232L36.6836 23.357Z" fill="#130C30"/>
<path d="M45.6058 21.6095L44.3698 19.0522L45.4069 18.5407C46.0179 18.2423 46.5009 17.8729 46.8135 17.4467C47.126 17.0063 47.2965 16.5517 47.3249 16.0828C47.3534 15.5998 47.2681 15.1309 47.0408 14.6763C46.7993 14.179 46.4725 13.7954 46.0889 13.5255C45.6911 13.2555 45.2222 13.0992 44.6966 13.0992C44.1709 13.0992 43.6026 13.2413 42.9917 13.5397L39.8518 15.0599L43.5174 22.6324L45.6201 21.6095H45.6058ZM43.5884 15.3298C44.1851 15.0457 44.6113 15.1735 44.8813 15.7276C45.1512 16.2675 44.9807 16.6795 44.384 16.9637L43.5458 17.3757L42.7502 15.7276L43.5884 15.3156V15.3298Z" fill="#130C30"/>
<path d="M51.8287 12.0621L53.633 18.356L55.8778 17.7167L54.0735 11.4228L56.233 10.7976L55.7215 9.00751L49.1861 10.8829L49.6976 12.673L51.8287 12.0621Z" fill="#130C30"/>
<path d="M65.9225 16.0402L65.7094 14.1648L62.6832 14.52L62.4985 13.014L65.1695 12.7014L64.9706 10.9397L62.2996 11.2523L62.1433 9.88837L65.1695 9.53319L64.9422 7.67201L59.6002 8.29714L60.5663 16.6511L65.9225 16.0402Z" fill="#130C30"/>
<path d="M70.4546 15.5003C71.0656 15.8981 71.7901 16.1254 72.6142 16.1823C73.6655 16.2533 74.5606 16.026 75.3136 15.5145C76.0666 15.003 76.578 14.2785 76.848 13.3266L74.3333 13.1561C74.1628 13.4686 73.9355 13.696 73.6655 13.838C73.3956 13.9943 73.083 14.0511 72.7278 14.0227C72.1879 13.9801 71.7759 13.767 71.4776 13.355C71.1792 12.943 71.0514 12.4173 71.094 11.7638C71.1366 11.1244 71.3355 10.6129 71.6765 10.2578C72.0175 9.88837 72.4721 9.73209 73.012 9.7605C73.3672 9.78892 73.6655 9.88837 73.9212 10.0731C74.177 10.2578 74.3617 10.5135 74.5038 10.8403L77.0185 11.0108C76.8764 10.0304 76.4644 9.24904 75.7824 8.63812C75.1005 8.0272 74.248 7.70043 73.1967 7.62939C72.3726 7.57256 71.6339 7.71463 70.9661 8.0272C70.3126 8.33976 69.7869 8.82281 69.3891 9.44794C69.0055 10.0731 68.7782 10.7976 68.7213 11.6217C68.6645 12.4599 68.7924 13.2129 69.0907 13.8807C69.3891 14.5484 69.8437 15.0883 70.4546 15.4861V15.5003Z" fill="#130C30"/>
<path d="M85.6708 16.6085L82.2894 15.7418L86.8642 12.0337L87.3189 10.3146L81.3944 8.76598L80.9113 10.5987L84.2643 11.4654L79.7179 15.1877L79.2775 16.9068L85.202 18.4555L85.6708 16.6085Z" fill="#130C30"/>
<path d="M91.6521 17.0347L92.4762 21.4958L95.0477 22.6893L93.9253 17.3899L98.4575 14.9888L96.0138 13.8522L92.1068 16.0402L93.6412 12.7441L91.5243 11.7638L87.9724 19.3931L90.0893 20.3735L91.6521 17.0347Z" fill="#130C30"/>
<path d="M98.6848 25.1045L99.8782 24.2663L102.265 26.028L101.81 27.4061L103.799 28.8695L106.343 20.2882L104.169 18.6828L96.71 23.627L98.6848 25.0903V25.1045ZM103.743 21.5243L102.862 24.2521L101.413 23.1723L103.757 21.51L103.743 21.5243Z" fill="#130C30"/>
<path d="M111.5 28.8695H110.505C120.919 39.2551 127.37 53.6188 127.37 69.4601C127.37 83.7102 122.127 96.781 113.489 106.826H114.412C122.937 96.7242 128.066 83.6818 128.066 69.4601C128.066 53.6757 121.729 39.3404 111.486 28.8695H111.5Z" fill="#130C30"/>
<path d="M26.5111 106.826C17.8729 96.781 12.6304 83.7102 12.6304 69.4601C12.6304 53.6188 19.0806 39.2693 29.4946 28.8695H28.5001C18.2565 39.3404 11.92 53.6757 11.92 69.4601C11.92 83.6818 17.0631 96.7242 25.5734 106.826H26.5111Z" fill="#130C30"/>
<path d="M60.4242 59.6002C60.4242 59.6002 60.3958 59.6002 60.3816 59.6002C59.9838 59.6002 59.657 59.2734 59.657 58.8898C59.657 58.6909 59.5007 58.5346 59.3018 58.5346H50.1948C49.9959 58.5346 49.8397 58.6909 49.8397 58.8898C49.8397 59.2876 49.5129 59.6002 49.1293 59.6002C48.9304 59.6002 48.7741 59.7564 48.7741 59.9553V62.9957C48.7741 63.1946 48.9304 63.3509 49.1293 63.3509C49.5271 63.3509 49.8397 63.6777 49.8397 64.0613C49.8397 64.2602 49.9959 64.4165 50.1948 64.4165H59.3018C59.5007 64.4165 59.657 64.2602 59.657 64.0613C59.657 63.6635 59.9838 63.3509 60.3816 63.3509C60.3816 63.3509 60.41 63.3509 60.4242 63.3509C60.5236 63.3509 60.6231 63.3225 60.7083 63.2657C60.7794 63.1946 60.822 63.0952 60.822 62.9957V59.9553C60.822 59.8559 60.7794 59.7564 60.6941 59.6854C60.6231 59.6144 60.5094 59.586 60.41 59.6002H60.4242ZM60.1116 62.669C59.5718 62.7826 59.1313 63.1946 59.0034 63.7203H50.5216C50.3938 63.2231 49.9959 62.8252 49.4845 62.6832V60.2821C49.9817 60.1543 50.3795 59.7564 50.5216 59.245H59.0034C59.1455 59.7707 59.5718 60.1827 60.1116 60.2963V62.669Z" fill="white"/>
<path d="M62.9957 56.7018L59.1171 49.8112C59.0745 49.726 58.9892 49.6692 58.8898 49.6408C58.7903 49.6123 58.6909 49.6408 58.6056 49.6834L46.7282 56.6308C46.6004 56.6592 46.5009 56.7445 46.4583 56.8581C46.4157 56.9434 46.4015 57.0286 46.4299 57.1139V65.9651C46.4299 66.164 46.5862 66.3203 46.7851 66.3203H62.74C62.9389 66.3203 63.0952 66.164 63.0952 65.9651V56.9576C63.0952 56.8439 63.0384 56.7587 62.9673 56.6876L62.9957 56.7018ZM58.7335 56.6166H51.1325L56.9007 53.3915C57.2275 53.7183 57.7248 53.8462 58.1794 53.7183L59.1455 55.4516C58.8188 55.7499 58.6625 56.1904 58.7335 56.6166ZM58.6767 50.4932L62.1149 56.6166H59.4723C59.3728 56.3609 59.4723 56.0483 59.7422 55.9062C59.8417 55.8636 59.9127 55.7926 59.9553 55.6931C59.998 55.5937 59.9838 55.48 59.9269 55.3806L58.6341 53.0647C58.5772 52.9795 58.492 52.9085 58.3783 52.8943C58.2789 52.8801 58.1652 52.8943 58.08 52.9653C57.9521 53.0363 57.7958 53.0647 57.6395 53.0221C57.4833 52.9795 57.3696 52.8801 57.2844 52.7522C57.1849 52.5817 56.9718 52.5107 56.7871 52.6101L49.8681 56.4887C49.8681 56.4887 49.7686 56.574 49.7402 56.6166H48.1916L58.6625 50.4932H58.6767ZM47.1829 65.6241V57.3838L62.4132 57.3554V65.6241H47.1829Z" fill="white"/>
<path d="M50.9194 61.0067C50.6495 61.0067 50.4364 61.2198 50.4364 61.4897C50.4364 61.7597 50.6495 61.9728 50.9194 61.9728C51.1894 61.9728 51.4025 61.7597 51.4025 61.4897C51.4025 61.2198 51.1894 61.0067 50.9194 61.0067Z" fill="white"/>
<path d="M58.6483 61.0067C58.3783 61.0067 58.1652 61.2198 58.1652 61.4897C58.1652 61.7597 58.3783 61.9728 58.6483 61.9728C58.9182 61.9728 59.1313 61.7597 59.1313 61.4897C59.1313 61.2198 58.9182 61.0067 58.6483 61.0067Z" fill="white"/>
<path d="M54.7838 59.998C53.9598 59.998 53.3063 60.6657 53.3063 61.4755C53.3063 62.2854 53.974 62.9531 54.7838 62.9531C55.5937 62.9531 56.2614 62.2854 56.2614 61.4755C56.2614 60.6657 55.5937 59.998 54.7838 59.998ZM54.7838 62.3564C54.3008 62.3564 53.9172 61.9586 53.9172 61.4897C53.9172 61.0209 54.315 60.6231 54.7838 60.6231C55.2527 60.6231 55.6505 61.0209 55.6505 61.4897C55.6505 61.9586 55.2527 62.3564 54.7838 62.3564Z" fill="white"/>
<path d="M57.398 54.8123C57.1991 54.9259 57.1281 55.1817 57.2417 55.3806C57.3554 55.5795 57.6111 55.6505 57.81 55.5368C58.0089 55.4232 58.08 55.1674 57.9663 54.9685C57.8526 54.7696 57.5969 54.6986 57.398 54.8123Z" fill="white"/>
<path d="M92.4335 80.002H72.8699V97.6335H92.4335V80.002Z" fill="#130C30"/>
<path d="M84.3921 85.344H78.2687C78.084 85.344 77.942 85.5003 77.942 85.685C77.942 85.8697 78.084 86.026 78.2687 86.026H84.3921C84.5768 86.026 84.7189 85.8697 84.7189 85.685C84.7189 85.5003 84.5768 85.344 84.3921 85.344Z" fill="white"/>
<path d="M84.3921 87.9014H78.2687C78.084 87.9014 77.942 88.0576 77.942 88.2423C77.942 88.427 78.084 88.5833 78.2687 88.5833H84.3921C84.5768 88.5833 84.7189 88.427 84.7189 88.2423C84.7189 88.0576 84.5768 87.9014 84.3921 87.9014Z" fill="white"/>
<path d="M84.3921 90.4587H78.2687C78.084 90.4587 77.942 90.615 77.942 90.7997C77.942 90.9844 78.084 91.1407 78.2687 91.1407H84.3921C84.5768 91.1407 84.7189 90.9844 84.7189 90.7997C84.7189 90.615 84.5768 90.4587 84.3921 90.4587Z" fill="white"/>
<path d="M90.7002 83.0424H86.6653C86.6653 83.0424 86.6227 83.0424 86.6085 83.0424V82.6872C86.6085 82.3178 86.3101 82.0195 85.9549 82.0195H77.0043C76.6491 82.0195 76.3507 82.3178 76.3507 82.6872V96.3406C76.3507 96.71 76.6491 97.0083 77.0043 97.0083H85.9549C86.3101 97.0083 86.6085 96.71 86.6085 96.3406V95.9854C86.6085 95.9854 86.6511 95.9854 86.6653 95.9854H90.7002C91.0554 95.9854 91.3538 95.687 91.3538 95.3176V83.7102C91.3538 83.3408 91.0554 83.0424 90.7002 83.0424ZM77.0185 96.3406V82.6872H85.9691V85.5713C85.9691 85.5713 85.9549 85.6424 85.9549 85.6708C85.9549 85.6992 85.9549 85.7418 85.9691 85.7702V88.1145C85.9691 88.1145 85.9549 88.1855 85.9549 88.2139C85.9549 88.2423 85.9549 88.285 85.9691 88.3134V90.6576C85.9691 90.6576 85.9549 90.7286 85.9549 90.7571C85.9549 90.7855 85.9549 90.8281 85.9691 90.8565V96.298H77.0185V96.3406ZM90.7002 95.3176H86.6653V91.1264H89.2226C89.4073 91.1264 89.5494 90.9702 89.5494 90.7855C89.5494 90.6008 89.4073 90.4445 89.2226 90.4445H86.6653V88.5549H89.2226C89.4073 88.5549 89.5494 88.3986 89.5494 88.2139C89.5494 88.0292 89.4073 87.8729 89.2226 87.8729H86.6653V85.9834H89.2226C89.4073 85.9834 89.5494 85.8271 89.5494 85.6424C89.5494 85.4577 89.4073 85.3014 89.2226 85.3014H86.6653V83.6675H90.7002V95.3176Z" fill="white"/>
</svg>
