<svg width="117" height="117" viewBox="0 0 117 117" fill="none" xmlns="http://www.w3.org/2000/svg">
<g opacity="0.6">
<path d="M58.5 0C26.2401 0 0 26.2401 0 58.5C0 90.7599 26.2401 117 58.5 117C90.7599 117 117 90.7599 117 58.5C117 26.2401 90.7599 0 58.5 0ZM58.5 116.43C26.5726 116.43 0.581794 90.4393 0.581794 58.5C0.581794 26.5607 26.5726 0.581794 58.5 0.581794C90.4274 0.581794 116.418 26.5607 116.418 58.5C116.418 90.4393 90.4393 116.418 58.5 116.418V116.43Z" fill="#26A3DD"/>
<path d="M79.5515 88.1478C79.7296 87.9934 79.8958 87.8272 80.062 87.6728C80.2757 87.4828 80.4894 87.2929 80.6794 87.1029C80.7388 87.0554 80.7982 86.996 80.8575 86.9367C81.4749 86.3549 82.0567 85.7493 82.591 85.1438C85.8918 81.5106 88.1834 77.5449 89.7625 73.7929C92.2441 68.9011 93.6214 63.4274 93.6214 57.752C93.6214 51.2691 91.8641 44.9169 88.5396 39.4195C88.4921 39.3364 88.4446 39.2652 88.3971 39.1939C88.1003 38.719 87.8272 38.2797 87.5303 37.8522C87.3997 37.6385 87.2454 37.4367 87.1148 37.2467C86.9367 36.9855 86.7467 36.7361 86.5567 36.4868V33.5778C86.5567 31.0963 84.5383 29.0778 82.0686 29.0778H79.0765C78.8509 28.9116 78.6135 28.7454 78.376 28.5792C78.1504 28.4248 77.9011 28.2586 77.6755 28.1042C71.8813 24.2573 65.1491 22.2388 58.1438 22.2269C52.3377 22.2269 46.5792 23.6517 41.4974 26.347C41.3074 26.4538 41.1055 26.5607 40.9156 26.6675C40.1201 27.1187 39.3245 27.5937 38.5528 28.1042C38.0778 28.4248 37.6148 28.7454 37.1636 29.0778H34.1003C31.6187 29.0778 29.6003 31.0963 29.6003 33.5778V36.5937C29.2559 37.0449 28.9354 37.5079 28.6266 37.971C24.6966 43.8127 22.6187 50.5924 22.6187 57.7045C22.6187 57.9063 22.6187 58.1201 22.6306 58.3219C22.6306 58.3219 22.6306 58.4763 22.6306 58.7731C22.7375 62.5251 23.438 66.1821 24.6491 69.6135C26.4657 75.4433 29.8971 82.4723 36.4037 88.124L36.0831 87.6253C40.7137 91.7454 47.4578 95.4736 56.1847 98.6675C56.7784 98.8931 57.4314 99.0119 58.0963 99.0119C58.595 99.0119 59.1055 98.9525 59.533 98.8219C59.6992 98.7863 59.8536 98.7269 60.0079 98.6794C60.0435 98.6794 60.1148 98.6438 60.1148 98.6438L60.186 98.6201C68.4974 95.5567 74.9921 92.0185 79.5752 88.1003L79.5515 88.1478ZM59.2243 96.0198L59.1649 96.0435C59.1649 96.0435 59.1055 96.0554 59.0818 96.0673C59.0106 96.091 58.9274 96.1267 58.8206 96.1504C58.31 96.2929 57.6926 96.2691 57.1821 96.0792C41.2599 90.2375 32.3905 82.8404 31.5 74.6834V74.5765C31.4406 74.4103 31.4288 74.2203 31.4288 74.0066V33.6016C31.4288 32.1174 32.6398 30.9063 34.124 30.9063H82.0924C83.5765 30.9063 84.7876 32.1174 84.7876 33.6016V74.0303C84.7876 74.1966 84.7639 74.3866 84.7282 74.5765V74.6596C83.8615 82.8048 75.0515 90.19 59.2243 96.0317V96.0198Z" fill="#26A3DD"/>
<path d="M52.3021 72.748H48.7995V69.3404C48.7995 69.2098 48.7045 69.1029 48.5739 69.0792H44.7269C44.5963 69.1029 44.5013 69.2098 44.5013 69.3522V72.7599H41.0106C40.8681 72.7599 40.7375 72.8668 40.7375 73.0211V76.69C40.7375 76.8325 40.8562 76.9512 41.0106 76.9512H44.5013V80.3588C44.5013 80.3588 44.5132 80.4657 44.5488 80.5132C44.5844 80.5607 44.6438 80.5963 44.715 80.6082L48.562 80.6201C48.6926 80.5844 48.7876 80.4776 48.7876 80.347V76.9393H52.2784C52.4327 76.9393 52.5515 76.8325 52.5515 76.6781V73.0092C52.5515 72.8668 52.4446 72.7599 52.2902 72.748H52.3021ZM52.029 76.405H48.5383C48.3958 76.405 48.277 76.5356 48.277 76.6781V80.0858H45.0475V76.6781C45.0475 76.5356 44.9288 76.405 44.7744 76.405H41.2836V73.3536L41.3668 73.2704H44.7744C44.9288 73.2704 45.0475 73.1398 45.0475 72.9974V69.5897H48.277V72.9974C48.277 73.1398 48.3958 73.2704 48.5383 73.2704H52.029V76.405Z" fill="#26A3DD"/>
<path d="M76.1438 43.6939L75.8113 43.3852L73.9472 41.6398C73.8285 41.5211 73.6385 41.5211 73.5198 41.6398L70.7889 44.3232L70.5396 44.0858L70.2071 43.777L67.9393 41.6398C67.9393 41.6398 67.88 41.5924 67.8443 41.5805C67.7375 41.533 67.595 41.5567 67.5119 41.6517L62.8338 46.2348C62.8338 46.2348 62.7507 46.3654 62.7507 46.4485V55.6266C62.7507 55.8047 62.8813 55.9354 63.0594 55.9354H72.6293C72.8074 55.9354 72.938 55.8047 72.938 55.6266V53.5844H76.8325C77.0106 53.5844 77.1412 53.442 77.1412 53.2639V44.7388C77.1412 44.6557 77.1055 44.5726 77.0343 44.5132L76.1557 43.6939H76.1438ZM72.3087 55.3298H63.3562V46.5792L67.7256 42.2929L69.7678 44.2045L70.1003 44.5132L72.3087 46.5792V55.3298ZM76.5 52.967H72.9974V46.4604C72.9974 46.3892 72.9736 46.3179 72.9261 46.2705C72.9261 46.2705 72.9261 46.2586 72.9024 46.2467L71.2757 44.7269L73.7454 42.3166L75.372 43.8364L75.7045 44.1451L76.5 44.8931V52.9789V52.967Z" fill="#26A3DD"/>
<path d="M64.686 52.8127C64.7454 52.872 64.8285 52.9076 64.9116 52.9076C64.9828 52.9076 65.0541 52.8839 65.1253 52.8245L70.6583 47.6834C70.777 47.5646 70.7889 47.3747 70.6702 47.2441C70.5515 47.1135 70.3496 47.1135 70.2309 47.2322L64.6979 52.3734C64.5673 52.4921 64.5673 52.6821 64.686 52.8127Z" fill="#26A3DD"/>
<path d="M65.1016 49.5237C65.3509 49.7018 65.6478 49.8087 65.9683 49.8087C66.0633 49.8087 66.1583 49.8087 66.2652 49.785C66.6451 49.7137 66.9538 49.4881 67.1675 49.1675C67.3694 48.8588 67.4288 48.5026 67.3575 48.1464C67.31 47.9327 67.2032 47.7309 67.0726 47.5765C66.9776 47.4578 66.8588 47.3509 66.7164 47.2797C66.4195 47.0897 66.0515 47.0185 65.6834 47.1016C65.3034 47.1728 64.9828 47.3984 64.7691 47.7071C64.5673 48.0158 64.496 48.3839 64.5792 48.7282C64.6148 48.9063 64.686 49.0607 64.781 49.2032C64.8641 49.3338 64.971 49.4406 65.1016 49.5356V49.5237ZM65.2916 48.0277C65.3984 47.8496 65.5884 47.7309 65.7902 47.6834C65.8496 47.6834 65.8971 47.6715 65.9565 47.6715C66.0515 47.6715 66.1583 47.6834 66.2414 47.719C66.3958 47.7665 66.5264 47.8734 66.6095 48.004C66.6689 48.0752 66.7045 48.1702 66.7282 48.2652C66.7639 48.467 66.7282 48.6689 66.6214 48.8232C66.5145 49.0013 66.3245 49.1201 66.1108 49.1675C65.909 49.2032 65.6953 49.1675 65.529 49.0726C65.3984 49.0013 65.2797 48.8826 65.2203 48.7282C65.1966 48.6807 65.1847 48.6332 65.1728 48.5739C65.1253 48.3839 65.1609 48.1821 65.2797 48.0158L65.2916 48.0277Z" fill="#26A3DD"/>
<path d="M69.6135 50.3074C69.6135 50.3074 69.5541 50.3074 69.5303 50.3074C68.8061 50.343 68.2243 50.9248 68.2005 51.6372V51.6847C68.2005 52.4446 68.8417 53.062 69.6253 53.062C70.409 53.062 71.0501 52.4446 71.0501 51.6847C71.0501 50.9248 70.409 50.2955 69.6253 50.2955L69.6135 50.3074ZM69.6135 52.4446C69.1623 52.4446 68.8179 52.1003 68.8179 51.6847C68.8179 51.2691 69.1741 50.9248 69.6135 50.9248C70.0528 50.9248 70.409 51.2691 70.409 51.6847C70.409 52.1003 70.0409 52.4446 69.6135 52.4446Z" fill="#26A3DD"/>
<path d="M64.4604 80.5488H71.6201V76.1913C71.6201 76.1913 71.6082 76.1438 71.6082 76.1082C71.6082 76.0844 71.6082 76.0607 71.6201 76.0251V74.1491C71.6201 74.1491 71.6082 74.1016 71.6082 74.066C71.6082 74.0303 71.6082 74.0066 71.6201 73.9829V72.095C71.6201 72.095 71.6082 72.0475 71.6082 72.0238C71.6082 71.9881 71.6082 71.9644 71.6201 71.9406V69.6253H64.4604V80.5488ZM65.4578 71.7744H70.3615C70.4921 71.7744 70.5871 71.8813 70.5871 72.0119C70.5871 72.1425 70.4921 72.2493 70.3615 72.2493H65.4578C65.3272 72.2493 65.2322 72.1425 65.2322 72.0119C65.2322 71.8813 65.3272 71.7744 65.4578 71.7744ZM65.4578 73.8166H70.3615C70.4921 73.8166 70.5871 73.9235 70.5871 74.0541C70.5871 74.1847 70.4921 74.2916 70.3615 74.2916H65.4578C65.3272 74.2916 65.2322 74.1847 65.2322 74.0541C65.2322 73.9235 65.3272 73.8166 65.4578 73.8166ZM65.4578 75.8588H70.3615C70.4921 75.8588 70.5871 75.9657 70.5871 76.0963C70.5871 76.2269 70.4921 76.3338 70.3615 76.3338H65.4578C65.3272 76.3338 65.2322 76.2269 65.2322 76.0963C65.2322 75.9657 65.3272 75.8588 65.4578 75.8588ZM65.4578 77.9011H67.9749C68.1055 77.9011 68.2124 78.0079 68.2124 78.1385C68.2124 78.2691 68.1055 78.376 67.9749 78.376H65.4578C65.3272 78.376 65.2322 78.2691 65.2322 78.1385C65.2322 78.0079 65.3272 77.9011 65.4578 77.9011Z" fill="#26A3DD"/>
<path d="M81.1069 33.5185C80.9644 33.4591 80.8219 33.4116 80.6675 33.376C80.6557 33.376 80.6438 33.376 80.6201 33.376C80.4894 33.3522 80.3588 33.3404 80.2282 33.3404H35.9525C35.7982 33.3404 35.6438 33.3522 35.5013 33.3879C35.0383 33.4829 34.6227 33.7441 34.3377 34.1003C34.0172 34.4683 33.8272 34.9433 33.8272 35.4657V74.0303L33.8509 74.3034H33.8747C33.8865 74.4815 33.9103 74.6596 33.9459 74.8259C33.9578 75.0158 33.9934 75.1939 34.0409 75.372C34.2546 76.5 34.6702 77.6042 35.2757 78.7085C35.3351 78.8509 35.4182 78.9934 35.5013 79.124C36.0237 80.0145 36.6649 80.8931 37.4367 81.7599C37.5317 81.8786 37.6385 81.9855 37.7454 82.1042C38.434 82.8522 39.2177 83.5884 40.0844 84.3245C40.2032 84.4314 40.31 84.5264 40.4406 84.6214C41.248 85.2744 42.1148 85.9274 43.0646 86.5567C43.1953 86.6398 43.3259 86.7348 43.4565 86.8179C44.347 87.3997 45.285 87.9815 46.2942 88.5396C46.4248 88.6227 46.5673 88.7058 46.7098 88.777C47.6596 89.2995 48.6689 89.8219 49.7137 90.3325C49.8562 90.4037 50.0106 90.4749 50.153 90.5462C51.1504 91.033 52.1953 91.5079 53.2876 91.971C53.442 92.0303 53.5963 92.1016 53.7507 92.161C55.0805 92.719 56.4697 93.2652 57.9182 93.7995V93.9657H58.5119V93.7045C73.4248 88.1834 81.6412 81.4749 82.3061 74.3034H82.3536V35.442C82.3536 35.2876 82.3417 35.1451 82.3061 35.0026C82.1636 34.3377 81.7124 33.7916 81.1069 33.5185ZM34.3734 64.6266L35.1095 63.8905H39.6689L34.3734 69.186V64.6266ZM34.3971 74.0066L34.3734 73.8522V69.8391L40.3219 63.8905H44.8813L34.4327 74.3391C34.4208 74.2322 34.409 74.1135 34.3971 74.0066ZM57.9063 93.1939C56.6121 92.7071 55.3773 92.2203 54.1781 91.7216L57.9063 87.9934V93.1939ZM57.9063 87.3404L53.715 91.5317C52.6227 91.0686 51.5778 90.5937 50.5686 90.1187L57.9063 82.781V87.3404ZM57.9063 82.128L50.1412 89.8931C49.0963 89.3945 48.0871 88.872 47.1372 88.3496L57.9182 77.5686V82.128H57.9063ZM57.9063 66.5026L53.347 71.062C53.4894 71.1332 53.6201 71.2164 53.7388 71.3113L57.9063 67.1557V71.715L54.4987 75.1227V75.7639L57.9063 72.3562V76.9156L46.7098 88.1121C45.7124 87.5422 44.7625 86.9723 43.872 86.3786L47.5409 82.7098H46.8997L43.4802 86.1293C42.5422 85.5 41.6636 84.8588 40.8562 84.1939L43.1003 81.9499C43.0053 81.8311 42.9103 81.7005 42.8391 81.5581L40.5 83.8971C39.6332 83.1728 38.8496 82.4248 38.1609 81.6768L40.9749 78.8628H40.8681C40.7018 78.8628 40.5356 78.8509 40.3813 78.8034L37.8522 81.3325C37.0924 80.4657 36.4393 79.5871 35.9288 78.6966L38.7784 75.847V75.1939L35.7032 78.2691C35.2282 77.3905 34.872 76.4881 34.6464 75.5858C34.6346 75.5026 34.6108 75.4195 34.5871 75.3245C34.5633 75.1821 34.5396 75.0396 34.5158 74.8971L45.5462 63.8668H50.1055L47.0066 66.9657H47.6596L50.7586 63.8668H55.3179L50.6161 68.5686C50.6517 68.723 50.6755 68.8892 50.6755 69.0554V69.1504L55.971 63.8549H57.9301V66.467L57.9063 66.5026ZM58.5 33.8865H64.4723L58.5 39.8588V33.8865ZM58.5 40.5119L65.1253 33.8865H69.6847L58.5 45.0712V40.5119ZM75.9182 79.7414C75.9182 80.0383 75.6807 80.2757 75.3958 80.2757H72.1306V80.5607C72.1306 80.8575 71.905 81.095 71.6201 81.095H64.4604C64.3773 81.095 64.2942 81.0712 64.223 81.0356C64.0567 80.9525 63.938 80.7744 63.938 80.5607V69.6372C63.938 69.3404 64.1755 69.1148 64.4604 69.1148H71.6201C71.905 69.1148 72.1306 69.3522 72.1306 69.6372V69.9222H75.3958C75.5501 69.9222 75.6926 69.9934 75.7876 70.1003C75.8588 70.1953 75.9182 70.314 75.9182 70.4565V79.7414ZM81.7955 63.2968H77.3905L81.7955 58.8918V63.2968ZM81.7955 58.2388L76.7375 63.2968H72.1781L81.7955 53.6794V58.2388ZM81.7955 37.4011L77.723 41.4736L78.0554 41.7823L81.7955 38.0422V42.6016L79.7414 44.6557V45.2968L81.7955 43.2427V47.8021L79.7414 49.8562V50.4974L81.7955 48.4433V53.0026L71.5251 63.2731H66.9657L72.1306 58.1082H71.4894L66.3245 63.2731H61.7652L66.9301 58.1082H66.2889L61.124 63.2731H58.5119V61.314L62.0264 57.7995C61.8839 57.7401 61.7533 57.6451 61.6227 57.5501L58.5 60.6728V56.1135L60.5541 54.0594V53.4182L58.5 55.4723V50.9129L60.5541 48.8588V48.2177L58.5 50.2718V45.7124L70.3377 33.8747H74.8971L69.3997 39.372C69.5303 39.4433 69.6491 39.5383 69.7559 39.6332L75.5264 33.8747H80.0858L74.8615 39.0989C75.0158 39.1464 75.1583 39.2177 75.3008 39.3008L80.6675 33.934C81.3087 34.124 81.7836 34.7296 81.7836 35.442V37.3892L81.7955 37.4011Z" fill="#26A3DD"/>
<path d="M72.19 71.7507H74.2322C74.3747 71.7507 74.4934 71.8694 74.4934 72.0119C74.4934 72.1544 74.3747 72.2731 74.2322 72.2731H72.19V73.781H74.2322C74.3747 73.781 74.4934 73.8997 74.4934 74.0422C74.4934 74.1847 74.3747 74.3153 74.2322 74.3153H72.19V75.8232H74.2322C74.3747 75.8232 74.4934 75.942 74.4934 76.0844C74.4934 76.2388 74.3747 76.3575 74.2322 76.3575H72.19V79.7177H75.4077V70.4327H72.19V71.7507Z" fill="#26A3DD"/>
<path d="M26.3113 91.6148L28.2823 93.6095L29.3865 92.5172L26.0383 89.1214L21.0396 94.0726L22.4169 95.4617L24.376 93.5264L25.8245 94.9987L26.8813 93.9538L25.4327 92.4815L26.3113 91.6148Z" fill="#26A3DD"/>
<path d="M31.3056 94.0597L27.0422 99.6482L28.5998 100.836L32.8632 95.248L31.3056 94.0597Z" fill="#26A3DD"/>
<path d="M37.1992 102.515L36.7718 97.7889L35.0383 96.8628L31.7375 103.073L33.4591 103.987L35.3113 100.52L35.7625 105.21L37.4842 106.136L40.7968 99.9261L39.0633 99.0119L37.1992 102.515Z" fill="#26A3DD"/>
<path d="M45.2137 101.482L40.785 107.525L42.7559 108.095L43.4327 107.098L45.8311 107.798L45.8786 109.009L47.8615 109.579L47.3747 102.111L45.2137 101.482ZM44.347 105.803L45.7005 103.832L45.7955 106.231L44.347 105.803Z" fill="#26A3DD"/>
<path d="M56.1609 107.454L53.8575 103.298L51.8984 103.156L51.3997 110.161L53.347 110.303L53.6319 106.385L55.9472 110.493L57.8945 110.636L58.405 103.619L56.4459 103.476L56.1609 107.454Z" fill="#26A3DD"/>
<path d="M65.6121 106.172C65.3034 106.065 64.9235 105.958 64.4604 105.863C64.1517 105.792 63.9142 105.732 63.7599 105.685C63.6055 105.637 63.4631 105.566 63.3443 105.483C63.2256 105.4 63.1662 105.293 63.1425 105.162C63.1187 105.008 63.1425 104.877 63.2375 104.782C63.3206 104.687 63.4274 104.628 63.5818 104.604C63.7718 104.58 63.938 104.604 64.0686 104.699C64.1992 104.794 64.2942 104.937 64.3179 105.15L66.4314 104.889C66.3127 104.212 65.9921 103.714 65.4578 103.393C64.9235 103.073 64.2586 102.966 63.4393 103.073C62.9406 103.132 62.5013 103.274 62.1214 103.488C61.7414 103.702 61.4683 103.987 61.2784 104.331C61.0884 104.675 61.029 105.079 61.0884 105.53C61.1478 105.97 61.2902 106.314 61.5396 106.563C61.7771 106.813 62.0501 106.991 62.347 107.098C62.6438 107.204 63.0356 107.299 63.5106 107.394C63.9617 107.478 64.2823 107.561 64.4842 107.656C64.686 107.739 64.8047 107.893 64.8285 108.095C64.8522 108.249 64.8048 108.38 64.6979 108.487C64.591 108.594 64.4486 108.653 64.2705 108.677C64.0686 108.701 63.9024 108.677 63.7599 108.57C63.6174 108.475 63.5224 108.309 63.4749 108.059L61.409 108.321C61.5396 109.033 61.8839 109.555 62.4538 109.876C63.0237 110.197 63.7124 110.303 64.5198 110.208C65.0541 110.137 65.5053 109.983 65.8734 109.745C66.2414 109.508 66.5145 109.211 66.6807 108.855C66.847 108.499 66.9063 108.107 66.847 107.703C66.7995 107.299 66.6451 106.967 66.4077 106.73C66.1702 106.492 65.8971 106.314 65.5884 106.195L65.6121 106.172Z" fill="#26A3DD"/>
<path d="M75.3008 101.838C74.8259 101.422 74.2797 101.149 73.6623 101.03C73.0449 100.923 72.4156 100.959 71.7863 101.173C71.157 101.387 70.6346 101.719 70.2071 102.182C69.7797 102.657 69.5066 103.191 69.3641 103.809C69.2335 104.426 69.281 105.067 69.4947 105.732C69.7084 106.397 70.0646 106.931 70.5396 107.347C71.0145 107.763 71.5607 108.036 72.19 108.154C72.8193 108.273 73.4367 108.226 74.066 108.024C74.6834 107.822 75.2177 107.478 75.6332 107.015C76.0607 106.551 76.3338 106.005 76.4644 105.388C76.595 104.77 76.5475 104.129 76.3338 103.464C76.1201 102.799 75.7757 102.277 75.2889 101.85L75.3008 101.838ZM74.4578 105.459C74.2916 105.863 73.971 106.136 73.496 106.302C73.0092 106.456 72.5818 106.433 72.2137 106.219C71.8338 106.005 71.5607 105.637 71.3945 105.115C71.2164 104.58 71.2164 104.117 71.3945 103.726C71.5607 103.322 71.8931 103.049 72.3681 102.894C72.843 102.74 73.2705 102.764 73.6385 102.978C74.0185 103.191 74.2916 103.559 74.4697 104.094C74.6478 104.604 74.6478 105.079 74.4697 105.471L74.4578 105.459Z" fill="#26A3DD"/>
<path d="M83.9208 95.1055L85.7968 99.5699L82.3179 96.1266L80.5132 97.2784L82.1636 101.933L78.8866 98.3114L77.1055 99.4512L82.3298 104.462L84.3483 103.168L82.8641 99.0119L85.9987 102.123L88.029 100.828L85.7019 93.9657L83.9208 95.1055Z" fill="#26A3DD"/>
<path d="M87.6728 91.5673L91.0092 98.2639L92.4222 96.7797L91.8522 95.7111L93.562 93.9063L94.6544 94.4169L96.0792 92.9209L89.2164 89.9406L87.6728 91.5792V91.5673ZM92.1491 93.2296L91.1161 94.3219L89.9763 92.2203L92.1491 93.2296Z" fill="#26A3DD"/>
<path d="M30.3245 23.058L29.9327 21.9182L31.9274 20.434L32.9129 21.1227L34.5633 19.8879L28.3061 15.7797L26.5013 17.1332L28.6504 24.2929L30.3008 23.0699L30.3245 23.058ZM30.657 19.5198L29.4459 20.4222L28.686 18.1544L30.657 19.5198Z" fill="#26A3DD"/>
<path d="M38.1135 18.0594L37.0805 15.9222L37.9472 15.4947C38.4578 15.2454 38.8615 14.9367 39.1227 14.5805C39.3839 14.2124 39.5264 13.8325 39.5501 13.4406C39.5739 13.0369 39.5026 12.6451 39.3127 12.2652C39.1108 11.8496 38.8377 11.529 38.5172 11.3034C38.1847 11.0778 37.7929 10.9472 37.3536 10.9472C36.9142 10.9472 36.4393 11.066 35.9288 11.3153L33.3047 12.5858L36.3681 18.9142L38.1253 18.0594H38.1135ZM36.4274 12.8113C36.9261 12.5739 37.2823 12.6807 37.5079 13.1438C37.7335 13.595 37.591 13.9393 37.0924 14.1768L36.3918 14.5211L35.7269 13.1438L36.4274 12.7995V12.8113Z" fill="#26A3DD"/>
<path d="M43.314 10.0805L44.8219 15.3404L46.6979 14.8061L45.19 9.54617L46.9947 9.02375L46.5673 7.5277L41.1055 9.09499L41.533 10.591L43.314 10.0805Z" fill="#26A3DD"/>
<path d="M55.0924 13.405L54.9142 11.8377L52.3852 12.1346L52.2309 10.876L54.4631 10.6148L54.2968 9.14248L52.0646 9.40369L51.934 8.26385L54.4631 7.96702L54.2731 6.41161L49.8087 6.93404L50.6161 13.9156L55.0924 13.405Z" fill="#26A3DD"/>
<path d="M58.8799 12.9538C59.3905 13.2863 59.996 13.4763 60.6847 13.5237C61.5633 13.5831 62.3113 13.3931 62.9406 12.9657C63.5699 12.5383 63.9974 11.9327 64.223 11.1372L62.1214 10.9947C61.9789 11.2559 61.7889 11.4459 61.5633 11.5646C61.3377 11.6953 61.0765 11.7427 60.7797 11.719C60.3285 11.6834 59.9842 11.5053 59.7348 11.1609C59.4855 10.8166 59.3786 10.3773 59.4142 9.83113C59.4499 9.29683 59.6161 8.86939 59.9011 8.57256C60.186 8.26385 60.566 8.13325 61.0172 8.15699C61.314 8.18074 61.5633 8.26385 61.777 8.41821C61.9908 8.57256 62.1451 8.78628 62.2639 9.05937L64.3654 9.20185C64.2467 8.38259 63.9024 7.72955 63.3325 7.219C62.7625 6.70844 62.0501 6.43536 61.1715 6.37599C60.4829 6.3285 59.8654 6.44723 59.3074 6.70844C58.7612 6.96966 58.3219 7.37335 57.9894 7.89578C57.6689 8.41821 57.4789 9.02375 57.4314 9.7124C57.3839 10.4129 57.4908 11.0422 57.7401 11.6003C57.9894 12.1583 58.3694 12.6095 58.8799 12.942V12.9538Z" fill="#26A3DD"/>
<path d="M71.5963 13.8799L68.7704 13.1557L72.5937 10.0567L72.9736 8.62005L68.0224 7.32586L67.6187 8.85752L70.4208 9.58179L66.6214 12.6926L66.2533 14.1293L71.2045 15.4235L71.5963 13.8799Z" fill="#26A3DD"/>
<path d="M76.595 14.2361L77.2836 17.9644L79.4327 18.9617L78.4947 14.533L82.2823 12.5264L80.2401 11.5765L76.9749 13.405L78.2573 10.6504L76.4881 9.83113L73.5198 16.2071L75.2889 17.0264L76.595 14.2361Z" fill="#26A3DD"/>
<path d="M82.4723 20.9802L83.4697 20.2797L85.4644 21.752L85.0844 22.9037L86.7467 24.1266L88.872 16.9551L87.0554 15.6135L80.8219 19.7454L82.4723 20.9683V20.9802ZM86.6992 17.9881L85.9631 20.2678L84.752 19.3654L86.7111 17.9763L86.6992 17.9881Z" fill="#26A3DD"/>
<path d="M93.1821 24.1266H92.3509C101.054 32.8061 106.445 44.81 106.445 58.0488C106.445 69.9578 102.063 80.8813 94.8443 89.2757H95.6161C102.74 80.8338 107.026 69.934 107.026 58.0488C107.026 44.8575 101.731 32.8773 93.1702 24.1266H93.1821Z" fill="#26A3DD"/>
<path d="M22.1557 89.2757C14.9367 80.8813 10.5554 69.9578 10.5554 58.0488C10.5554 44.81 15.9459 32.8179 24.6491 24.1266H23.8179C15.2573 32.8773 9.96174 44.8575 9.96174 58.0488C9.96174 69.934 14.2599 80.8338 21.372 89.2757H22.1557Z" fill="#26A3DD"/>
<path d="M50.4974 49.8087C50.4974 49.8087 50.4736 49.8087 50.4617 49.8087C50.1293 49.8087 49.8562 49.5356 49.8562 49.215C49.8562 49.0488 49.7256 48.9182 49.5594 48.9182H41.9486C41.7823 48.9182 41.6517 49.0488 41.6517 49.215C41.6517 49.5475 41.3786 49.8087 41.0581 49.8087C40.8918 49.8087 40.7612 49.9393 40.7612 50.1055V52.6464C40.7612 52.8127 40.8918 52.9433 41.0581 52.9433C41.3905 52.9433 41.6517 53.2164 41.6517 53.5369C41.6517 53.7032 41.7823 53.8338 41.9486 53.8338H49.5594C49.7256 53.8338 49.8562 53.7032 49.8562 53.5369C49.8562 53.2045 50.1293 52.9433 50.4617 52.9433C50.4617 52.9433 50.4855 52.9433 50.4974 52.9433C50.5805 52.9433 50.6636 52.9195 50.7348 52.872C50.7942 52.8127 50.8298 52.7296 50.8298 52.6464V50.1055C50.8298 50.0224 50.7942 49.9393 50.723 49.8799C50.6636 49.8206 50.5686 49.7968 50.4855 49.8087H50.4974ZM50.2362 52.3734C49.785 52.4683 49.4169 52.8127 49.31 53.252H42.2216C42.1148 52.8364 41.7823 52.504 41.3549 52.3852V50.3786C41.7705 50.2718 42.1029 49.9393 42.2216 49.5119H49.31C49.4288 49.9512 49.785 50.2955 50.2362 50.3905V52.3734Z" fill="#130C30"/>
<path d="M52.6464 47.3865L49.405 41.628C49.3694 41.5567 49.2982 41.5092 49.215 41.4855C49.1319 41.4617 49.0488 41.4855 48.9776 41.5211L39.0515 47.3272C38.9446 47.3509 38.8615 47.4222 38.8259 47.5172C38.7902 47.5884 38.7784 47.6596 38.8021 47.7309V55.128C38.8021 55.2942 38.9327 55.4248 39.0989 55.4248H52.4327C52.5989 55.4248 52.7295 55.2942 52.7295 55.128V47.6003C52.7295 47.5053 52.6821 47.434 52.6227 47.3747L52.6464 47.3865ZM49.0844 47.3153H42.7322L47.5528 44.6201C47.8259 44.8931 48.2414 45 48.6214 44.8931L49.4288 46.3417C49.1557 46.591 49.0251 46.9591 49.0844 47.3153ZM49.0369 42.1979L51.9103 47.3153H49.7019C49.6187 47.1016 49.7018 46.8404 49.9274 46.7216C50.0106 46.686 50.0699 46.6267 50.1055 46.5435C50.1412 46.4604 50.1293 46.3654 50.0818 46.2823L49.0013 44.347C48.9538 44.2757 48.8826 44.2164 48.7876 44.2045C48.7045 44.1926 48.6095 44.2045 48.5383 44.2639C48.4314 44.3232 48.3008 44.347 48.1702 44.3113C48.0396 44.2757 47.9446 44.1926 47.8734 44.0858C47.7902 43.9433 47.6121 43.8839 47.4578 43.967L41.6755 47.2084C41.6755 47.2084 41.5923 47.2797 41.5686 47.3153H40.2744L49.0251 42.1979H49.0369ZM39.4314 54.843V47.9565L52.1596 47.9327V54.843H39.4314Z" fill="#130C30"/>
<path d="M42.5541 50.9842C42.3285 50.9842 42.1504 51.1623 42.1504 51.3879C42.1504 51.6135 42.3285 51.7916 42.5541 51.7916C42.7797 51.7916 42.9578 51.6135 42.9578 51.3879C42.9578 51.1623 42.7797 50.9842 42.5541 50.9842Z" fill="#130C30"/>
<path d="M49.0132 50.9842C48.7876 50.9842 48.6095 51.1623 48.6095 51.3879C48.6095 51.6135 48.7876 51.7916 49.0132 51.7916C49.2388 51.7916 49.4169 51.6135 49.4169 51.3879C49.4169 51.1623 49.2388 50.9842 49.0132 50.9842Z" fill="#130C30"/>
<path d="M45.7836 50.1412C45.095 50.1412 44.5488 50.6992 44.5488 51.376C44.5488 52.0528 45.1069 52.6108 45.7836 52.6108C46.4604 52.6108 47.0185 52.0528 47.0185 51.376C47.0185 50.6992 46.4604 50.1412 45.7836 50.1412ZM45.7836 52.1121C45.38 52.1121 45.0594 51.7797 45.0594 51.3879C45.0594 50.996 45.3918 50.6636 45.7836 50.6636C46.1755 50.6636 46.5079 50.996 46.5079 51.3879C46.5079 51.7797 46.1755 52.1121 45.7836 52.1121Z" fill="#130C30"/>
<path d="M47.9683 45.8074C47.8021 45.9024 47.7427 46.1161 47.8377 46.2823C47.9327 46.4486 48.1464 46.5079 48.3127 46.4129C48.4789 46.3179 48.5383 46.1042 48.4433 45.938C48.3483 45.7718 48.1346 45.7124 47.9683 45.8074Z" fill="#130C30"/>
<path d="M77.248 66.8588H60.8984V81.5937H77.248V66.8588Z" fill="#26A3DD"/>
<path d="M70.5277 71.3232H65.4103C65.2559 71.3232 65.1372 71.4538 65.1372 71.6082C65.1372 71.7625 65.2559 71.8931 65.4103 71.8931H70.5277C70.6821 71.8931 70.8008 71.7625 70.8008 71.6082C70.8008 71.4538 70.6821 71.3232 70.5277 71.3232Z" fill="#130C30"/>
<path d="M70.5277 73.4604H65.4103C65.2559 73.4604 65.1372 73.591 65.1372 73.7454C65.1372 73.8997 65.2559 74.0303 65.4103 74.0303H70.5277C70.6821 74.0303 70.8008 73.8997 70.8008 73.7454C70.8008 73.591 70.6821 73.4604 70.5277 73.4604Z" fill="#130C30"/>
<path d="M70.5277 75.5976H65.4103C65.2559 75.5976 65.1372 75.7282 65.1372 75.8826C65.1372 76.0369 65.2559 76.1675 65.4103 76.1675H70.5277C70.6821 76.1675 70.8008 76.0369 70.8008 75.8826C70.8008 75.7282 70.6821 75.5976 70.5277 75.5976Z" fill="#130C30"/>
<path d="M75.7995 69.3997H72.4274C72.4274 69.3997 72.3918 69.3997 72.38 69.3997V69.1029C72.38 68.7942 72.1306 68.5449 71.8338 68.5449H64.3536C64.0567 68.5449 63.8074 68.7942 63.8074 69.1029V80.5132C63.8074 80.8219 64.0567 81.0712 64.3536 81.0712H71.8338C72.1306 81.0712 72.38 80.8219 72.38 80.5132V80.2164C72.38 80.2164 72.4156 80.2164 72.4274 80.2164H75.7995C76.0963 80.2164 76.3456 79.967 76.3456 79.6583V69.9578C76.3456 69.6491 76.0963 69.3997 75.7995 69.3997ZM64.3654 80.5132V69.1029H71.8456V71.5132C71.8456 71.5132 71.8338 71.5726 71.8338 71.5963C71.8338 71.6201 71.8338 71.6557 71.8456 71.6794V73.6385C71.8456 73.6385 71.8338 73.6979 71.8338 73.7216C71.8338 73.7454 71.8338 73.781 71.8456 73.8047V75.7639C71.8456 75.7639 71.8338 75.8232 71.8338 75.847C71.8338 75.8707 71.8338 75.9063 71.8456 75.9301V80.4776H64.3654V80.5132ZM75.7995 79.6583H72.4274V76.1557H74.5646C74.719 76.1557 74.8377 76.0251 74.8377 75.8707C74.8377 75.7164 74.719 75.5858 74.5646 75.5858H72.4274V74.0066H74.5646C74.719 74.0066 74.8377 73.876 74.8377 73.7216C74.8377 73.5673 74.719 73.4367 74.5646 73.4367H72.4274V71.8575H74.5646C74.719 71.8575 74.8377 71.7269 74.8377 71.5726C74.8377 71.4182 74.719 71.2876 74.5646 71.2876H72.4274V69.9222H75.7995V79.6583Z" fill="#130C30"/>
</g>
</svg>
