<svg width="48" height="48" viewBox="0 0 48 48" fill="none" xmlns="http://www.w3.org/2000/svg">
<rect opacity="0.2" width="48" height="48" rx="8" fill="#26A3DD"/>
<g opacity="0.5">
<path d="M7.16288 29.2552C7.87072 33.4515 11.804 36.7743 16.5406 35.8421C19.8435 35.1928 22.3025 32.559 22.8412 29.0413C23.3184 25.9295 21.5994 22.585 18.7217 21.1039C18.0583 20.7622 17.3344 20.5389 16.5321 20.219C17.0405 19.2972 17.5111 18.3167 18.0999 17.4129C18.6962 16.4968 19.4031 15.6517 20.0741 14.7857C20.5211 14.2084 20.6118 13.5043 20.2867 12.8977C19.9484 12.2683 19.3077 11.9333 18.5705 12.0336C18.3173 12.0677 18.0687 12.1586 17.8249 12.2428C12.7651 13.9879 9.27789 17.2965 7.75826 22.5055C7.11657 24.7058 6.7773 26.9658 7.16288 29.2552Z" fill="#26A3DD"/>
<path d="M34.5796 35.844C38.0706 35.1758 40.5986 32.3319 40.9653 28.6627C41.2932 25.3702 39.2689 22.0673 36.1144 20.7717C35.6607 20.5852 35.1807 20.4613 34.5872 20.2673C35.1306 19.284 35.6069 18.294 36.2023 17.3826C36.8071 16.4571 37.5282 15.6091 38.2001 14.728C38.6546 14.1318 38.6943 13.3879 38.2984 12.7784C37.9005 12.1661 37.1719 11.8585 36.4829 12.063C33.37 12.9904 30.6926 14.6059 28.6098 17.1356C26.8019 19.3332 25.7869 21.8818 25.356 24.6718C25.1102 26.2608 24.9647 27.8573 25.2728 29.4605C26.1129 33.8414 30.2418 36.6758 34.5796 35.844Z" fill="#26A3DD"/>
</g>
</svg>
